<svg xmlns="http://www.w3.org/2000/svg" xmlns:xlink="http://www.w3.org/1999/xlink" width="500" zoomAndPan="magnify" viewBox="0 0 375 374.999991" height="500" preserveAspectRatio="xMidYMid meet" version="1.0"><defs><g/><clipPath id="id1"><path d="M 63.503906 63.671875 L 311.429688 63.671875 L 311.429688 250 L 63.503906 250 Z M 63.503906 63.671875 " clip-rule="nonzero"/></clipPath><clipPath id="id2"><path d="M 63.503906 195 L 311.429688 195 L 311.429688 311.59375 L 63.503906 311.59375 Z M 63.503906 195 " clip-rule="nonzero"/></clipPath><clipPath id="id3"><path d="M 187.53125 0 C 83.960938 0 0 83.960938 0 187.53125 C 0 291.101562 83.960938 375.0625 187.53125 375.0625 C 291.101562 375.0625 375.0625 291.101562 375.0625 187.53125 C 375.0625 83.960938 291.101562 0 187.53125 0 " clip-rule="nonzero"/></clipPath></defs><g clip-path="url(#id1)"><path fill="#e32f59" d="M 187.4375 112.789062 L 245.238281 127.617188 L 238.84375 129.257812 L 238.84375 153.882812 C 239.789062 154.214844 240.464844 155.109375 240.464844 156.164062 L 240.464844 162.949219 L 235.621094 162.949219 L 235.621094 156.164062 C 235.621094 155.109375 236.296875 154.214844 237.238281 153.882812 L 237.238281 129.671875 L 215.222656 135.316406 L 215.222656 148.324219 L 213.875 148.324219 C 214.269531 150.441406 214.480469 152.636719 214.480469 154.890625 C 214.480469 163.714844 211.300781 171.679688 206.203125 177.359375 C 216.546875 182.9375 223.582031 193.871094 223.582031 206.449219 L 223.582031 208.664062 C 219.097656 211.566406 214.714844 214.660156 210.503906 217.9375 C 206.953125 220.703125 204.066406 223.097656 201.433594 225.476562 C 199.675781 227.054688 198.230469 228.441406 196.867188 229.847656 C 195.921875 230.832031 195.160156 231.691406 194.398438 232.628906 L 193.65625 233.589844 C 193.40625 233.9375 193.113281 234.382812 192.851562 234.785156 C 192.636719 235.105469 192.394531 235.539062 192.113281 236.109375 L 191.808594 236.75 C 191.722656 236.933594 191.640625 237.101562 191.457031 237.621094 C 191.105469 238.652344 190.875 239.757812 190.785156 240.855469 C 190.769531 240.984375 190.761719 241.113281 190.753906 241.246094 L 190.710938 242.066406 C 190.691406 242.144531 190.679688 242.214844 190.671875 242.277344 C 190.640625 242.382812 190.613281 242.492188 190.585938 242.601562 C 190.550781 242.699219 190.515625 242.796875 190.480469 242.894531 L 190.46875 242.941406 C 190.296875 243.320312 190.050781 243.679688 189.742188 243.976562 C 189.171875 244.53125 188.429688 244.855469 187.640625 244.898438 L 186.988281 244.863281 C 186.902344 244.847656 186.816406 244.832031 186.71875 244.816406 L 186.457031 244.753906 C 186.453125 244.75 186.203125 244.65625 186.078125 244.613281 C 185.734375 244.460938 185.410156 244.238281 185.132812 243.964844 C 184.519531 243.378906 184.164062 242.570312 184.148438 241.746094 L 184.144531 241.578125 L 183.972656 239.726562 L 183.824219 239.085938 C 183.753906 238.769531 183.613281 238.265625 183.507812 237.957031 C 183.375 237.546875 183.226562 237.140625 183.085938 236.824219 C 182.703125 235.871094 182.328125 235.207031 181.996094 234.734375 C 181.742188 234.34375 181.460938 233.914062 181.21875 233.582031 L 180.480469 232.628906 C 179.539062 231.464844 178.671875 230.535156 178.019531 229.851562 C 176.386719 228.144531 174.792969 226.679688 173.457031 225.476562 C 170.816406 223.09375 167.933594 220.695312 164.375 217.925781 C 160.128906 214.625 155.746094 211.527344 151.292969 208.648438 L 151.292969 206.449219 C 151.292969 193.871094 158.328125 182.9375 168.675781 177.359375 C 163.574219 171.679688 160.398438 163.714844 160.398438 154.890625 C 160.398438 152.636719 160.609375 150.441406 161 148.324219 L 159.652344 148.324219 L 159.652344 135.316406 L 129.636719 127.617188 Z M 83.09375 189.144531 C 84.707031 189.394531 86.332031 189.644531 87.96875 189.894531 C 89.589844 190.210938 91.222656 190.53125 92.867188 190.855469 C 96.171875 191.449219 99.457031 192.28125 102.804688 193.054688 C 106.128906 193.855469 109.574219 194.832031 112.90625 195.796875 C 114.539062 196.308594 116.179688 196.816406 117.828125 197.332031 L 119.066406 197.714844 L 120.453125 198.191406 C 121.328125 198.492188 122.207031 198.796875 123.066406 199.136719 C 129.992188 201.75 136.582031 205.148438 142.976562 208.929688 C 149.371094 212.722656 155.554688 216.945312 161.527344 221.589844 C 164.515625 223.917969 167.460938 226.316406 170.347656 228.921875 C 171.796875 230.222656 173.230469 231.5625 174.664062 233.058594 C 175.386719 233.8125 176.105469 234.601562 176.875 235.550781 L 177.472656 236.324219 C 177.6875 236.617188 177.933594 237 178.152344 237.339844 C 178.1875 237.367188 178.582031 238.054688 178.785156 238.5625 C 178.902344 238.832031 179.003906 239.109375 179.09375 239.386719 C 179.171875 239.625 179.285156 240.03125 179.304688 240.128906 L 179.382812 240.46875 L 179.507812 241.835938 C 179.546875 243.898438 180.421875 245.871094 181.90625 247.308594 C 182.644531 248.019531 183.515625 248.585938 184.457031 248.964844 C 184.699219 249.039062 184.929688 249.148438 185.175781 249.214844 L 185.882812 249.386719 C 186.054688 249.394531 186.121094 249.4375 186.375 249.480469 L 187.070312 249.515625 L 187.421875 249.53125 L 187.53125 249.539062 C 189.558594 249.519531 191.511719 248.726562 192.972656 247.308594 C 193.710938 246.59375 194.308594 245.738281 194.714844 244.804688 C 194.816406 244.574219 194.886719 244.328125 194.988281 244.09375 C 195.070312 243.855469 195.109375 243.605469 195.1875 243.363281 C 195.246094 243.128906 195.230469 243.039062 195.289062 242.875 C 195.320312 242.871094 195.328125 242.582031 195.34375 242.355469 L 195.386719 241.488281 C 195.390625 241.546875 195.402344 241.109375 195.390625 241.578125 C 195.421875 240.757812 195.582031 239.90625 195.847656 239.128906 C 195.96875 238.785156 195.996094 238.769531 196.078125 238.570312 L 196.300781 238.113281 C 196.441406 237.824219 196.640625 237.460938 196.726562 237.339844 C 196.945312 237 197.191406 236.617188 197.40625 236.328125 L 198.003906 235.554688 C 198.773438 234.605469 199.492188 233.8125 200.214844 233.0625 C 201.65625 231.574219 203.085938 230.230469 204.535156 228.929688 C 207.421875 226.328125 210.367188 223.925781 213.355469 221.597656 C 219.328125 216.953125 225.515625 212.738281 231.910156 208.945312 C 238.324219 205.148438 244.839844 201.789062 251.871094 199.132812 C 252.789062 198.769531 253.601562 198.492188 254.414062 198.210938 L 255.734375 197.757812 L 257 197.363281 C 258.6875 196.839844 260.367188 196.3125 262.039062 195.792969 C 263.710938 195.269531 265.402344 194.84375 267.070312 194.375 C 268.75 193.933594 270.402344 193.4375 272.078125 193.070312 C 275.421875 192.300781 278.710938 191.46875 282.011719 190.871094 C 283.65625 190.550781 285.292969 190.226562 286.914062 189.910156 C 288.546875 189.660156 290.175781 189.410156 291.789062 189.164062 C 298.496094 188.144531 305.054688 187.492188 311.398438 187.140625 C 311.117188 118.914062 255.730469 63.695312 187.4375 63.695312 C 119.152344 63.695312 63.769531 118.90625 63.476562 187.121094 C 69.824219 187.472656 76.378906 188.125 83.09375 189.144531 " fill-opacity="1" fill-rule="nonzero"/></g><path fill="#322f30" d="M 208.238281 242.296875 C 208.261719 242.097656 208.273438 241.902344 208.265625 241.703125 L 208.238281 242.296875 " fill-opacity="1" fill-rule="nonzero"/><g clip-path="url(#id2)"><path fill="#397dc9" d="M 307.117188 216.960938 L 302.835938 217.734375 C 301.410156 218.011719 299.972656 218.222656 298.566406 218.5625 C 295.746094 219.207031 292.910156 219.773438 290.148438 220.550781 C 288.761719 220.914062 287.382812 221.28125 286.007812 221.644531 C 284.644531 222.050781 283.289062 222.460938 281.941406 222.863281 C 281.269531 223.066406 280.597656 223.269531 279.925781 223.46875 C 279.265625 223.691406 278.601562 223.914062 277.945312 224.136719 C 276.625 224.578125 275.320312 225.023438 274.023438 225.460938 C 268.875 227.332031 263.921875 229.246094 259.339844 231.328125 C 254.726562 233.347656 250.460938 235.480469 246.566406 237.527344 C 238.785156 241.65625 232.554688 245.589844 228.3125 248.511719 C 224.058594 251.417969 221.78125 253.296875 221.78125 253.296875 C 221.78125 253.296875 223.9375 251.28125 228.023438 248.109375 C 232.089844 244.921875 238.089844 240.59375 245.667969 235.957031 C 249.464844 233.65625 253.636719 231.238281 258.171875 228.910156 C 262.683594 226.519531 267.578125 224.273438 272.695312 222.046875 C 273.984375 221.519531 275.289062 220.988281 276.601562 220.457031 C 277.257812 220.191406 277.917969 219.921875 278.578125 219.65625 C 279.25 219.40625 279.921875 219.160156 280.59375 218.910156 C 281.945312 218.414062 283.300781 217.914062 284.664062 217.410156 C 286.046875 216.953125 287.4375 216.492188 288.828125 216.03125 C 291.605469 215.066406 294.472656 214.304688 297.328125 213.46875 C 298.753906 213.03125 300.210938 212.71875 301.664062 212.351562 L 306.023438 211.28125 L 309.277344 210.621094 C 310.179688 205.789062 310.804688 200.859375 311.128906 195.851562 C 305.390625 196.558594 299.496094 197.515625 293.496094 198.757812 C 291.964844 199.078125 290.429688 199.398438 288.882812 199.726562 C 287.347656 200.101562 285.800781 200.480469 284.246094 200.859375 C 281.121094 201.570312 278.019531 202.511719 274.867188 203.394531 C 273.285156 203.8125 271.730469 204.363281 270.152344 204.859375 C 268.582031 205.375 266.980469 205.828125 265.40625 206.390625 C 263.832031 206.945312 262.25 207.5 260.660156 208.058594 L 259.464844 208.480469 L 258.34375 208.910156 C 257.527344 209.222656 256.707031 209.542969 256.015625 209.847656 C 254.59375 210.445312 253.054688 211.144531 251.566406 211.867188 C 250.070312 212.585938 248.578125 213.355469 247.085938 214.144531 C 244.105469 215.726562 241.152344 217.453125 238.226562 219.289062 C 232.390625 222.980469 226.664062 227.085938 221.144531 231.488281 C 218.394531 233.695312 215.683594 235.980469 213.136719 238.347656 C 211.863281 239.527344 210.625 240.734375 209.519531 241.917969 C 209.023438 242.441406 208.558594 242.96875 208.183594 243.421875 C 208.171875 243.539062 208.160156 243.675781 208.136719 243.867188 C 208.039062 244.613281 207.9375 245.449219 207.78125 246.117188 C 207.613281 246.769531 207.46875 247.425781 207.257812 248.0625 C 207.03125 248.695312 206.816406 249.335938 206.550781 249.953125 C 205.484375 252.421875 203.933594 254.671875 202.019531 256.550781 C 198.210938 260.335938 192.820312 262.546875 187.4375 262.535156 L 185.71875 262.457031 C 185.050781 262.394531 184.199219 262.269531 183.453125 262.144531 C 182.738281 262 182.125 261.824219 181.460938 261.648438 C 180.816406 261.460938 180.1875 261.207031 179.554688 260.972656 C 177.054688 259.949219 174.769531 258.4375 172.855469 256.554688 C 169.3125 253.121094 167.085938 248.335938 166.695312 243.425781 C 166.316406 242.972656 165.851562 242.449219 165.351562 241.921875 C 164.238281 240.746094 163.003906 239.53125 161.730469 238.355469 C 159.1875 235.988281 156.472656 233.703125 153.726562 231.492188 C 142.671875 222.738281 130.847656 214.964844 118.800781 209.84375 C 118.050781 209.515625 117.296875 209.222656 116.542969 208.929688 L 115.488281 208.523438 L 114.261719 208.09375 C 112.636719 207.519531 111.011719 206.949219 109.398438 206.382812 C 107.78125 205.808594 106.25 205.375 104.679688 204.863281 C 103.117188 204.378906 101.59375 203.832031 100.003906 203.414062 C 96.851562 202.53125 93.75 201.589844 90.628906 200.878906 C 89.070312 200.496094 87.527344 200.117188 85.992188 199.742188 C 84.441406 199.417969 82.90625 199.097656 81.378906 198.777344 C 75.378906 197.535156 69.488281 196.578125 63.746094 195.867188 C 64.074219 200.871094 64.699219 205.792969 65.601562 210.621094 L 68.855469 211.28125 L 73.214844 212.351562 C 74.664062 212.71875 76.121094 213.03125 77.546875 213.46875 C 80.40625 214.304688 83.269531 215.066406 86.046875 216.03125 C 87.441406 216.492188 88.828125 216.953125 90.210938 217.410156 C 91.574219 217.914062 92.933594 218.414062 94.28125 218.910156 C 94.957031 219.160156 95.628906 219.40625 96.296875 219.65625 C 96.957031 219.921875 97.617188 220.191406 98.273438 220.457031 C 99.585938 220.988281 100.890625 221.519531 102.183594 222.046875 C 107.296875 224.273438 112.191406 226.519531 116.703125 228.910156 C 121.238281 231.238281 125.410156 233.65625 129.207031 235.957031 C 136.785156 240.59375 142.789062 244.921875 146.855469 248.109375 C 150.9375 251.28125 153.097656 253.296875 153.097656 253.296875 C 153.097656 253.296875 150.816406 251.417969 146.5625 248.511719 C 142.320312 245.589844 136.09375 241.65625 128.3125 237.527344 C 124.414062 235.480469 120.148438 233.347656 115.539062 231.328125 C 110.953125 229.246094 106 227.332031 100.855469 225.460938 C 99.558594 225.023438 98.25 224.578125 96.929688 224.136719 C 96.273438 223.914062 95.613281 223.691406 94.949219 223.46875 C 94.28125 223.269531 93.605469 223.066406 92.933594 222.863281 C 91.585938 222.460938 90.230469 222.050781 88.871094 221.644531 C 87.496094 221.28125 86.113281 220.914062 84.726562 220.550781 C 81.964844 219.773438 79.132812 219.207031 76.3125 218.5625 C 74.902344 218.222656 73.464844 218.011719 72.042969 217.734375 L 67.757812 216.960938 L 66.933594 216.847656 C 80.058594 271.230469 129.023438 311.628906 187.4375 311.628906 C 245.851562 311.628906 294.816406 271.230469 307.941406 216.847656 L 307.117188 216.960938 " fill-opacity="1" fill-rule="nonzero"/></g><g clip-path="url(#id3)"><path stroke-linecap="butt" transform="matrix(1.271666, 0, 0, 1.271666, 0.0000045, 0.000000000000078768)" fill="none" stroke-linejoin="miter" d="M 147.468904 -0.000000000000061941 C 66.02434 -0.000000000000061941 -0.00000353866 66.024344 -0.00000353866 147.468908 C -0.00000353866 228.913472 66.02434 294.937816 147.468904 294.937816 C 228.913468 294.937816 294.937812 228.913472 294.937812 147.468908 C 294.937812 66.024344 228.913468 -0.000000000000061941 147.468904 -0.000000000000061941 " stroke="#000000" stroke-width="4.719218" stroke-opacity="1" stroke-miterlimit="4"/></g><g fill="#410179" fill-opacity="1"><g transform="translate(51.958981, 244.371318)"><g><path d="M -0.550781 -1.667969 L -2.0625 -6.214844 L -8.027344 -4.234375 L -8.589844 -5.925781 L -8.6875 -6.21875 L -3.71875 -11.214844 L -5.464844 -16.484375 L -11.75 -9.800781 C -12.46875 -10.085938 -13.351562 -10.269531 -14.394531 -10.324219 L -21.050781 -10.714844 L -19.414062 -5.785156 L -15.003906 -5.671875 C -13.472656 -5.65625 -12.964844 -5.25 -12.425781 -3.628906 L -12.171875 -2.863281 L -17.824219 -0.988281 L -16.316406 3.5625 Z M -0.550781 -1.667969 "/></g></g></g><g fill="#410179" fill-opacity="1"><g transform="translate(45.285278, 223.188726)"><g><path d="M -1.132812 -8.832031 C -1.878906 -13.253906 -5.035156 -15.535156 -9.429688 -14.789062 L -19.070312 -13.160156 L -18.273438 -8.457031 L -8.941406 -10.039062 C -7 -10.367188 -5.832031 -9.722656 -5.554688 -8.082031 C -5.277344 -6.445312 -6.167969 -5.453125 -8.109375 -5.125 L -17.441406 -3.546875 L -16.644531 1.179688 L -7.007812 -0.453125 C -2.609375 -1.195312 -0.386719 -4.410156 -1.132812 -8.832031 Z M -1.132812 -8.832031 "/></g></g></g><g fill="#410179" fill-opacity="1"><g transform="translate(41.991249, 201.303595)"><g><path d="M 0.171875 -7.714844 C 0.0703125 -11.84375 -1.929688 -14.238281 -5.203125 -14.160156 C -7.957031 -14.09375 -9.527344 -12.277344 -10.332031 -8.222656 C -10.753906 -6.078125 -11.257812 -5.28125 -12.109375 -5.261719 C -12.917969 -5.242188 -13.433594 -5.941406 -13.457031 -7.058594 C -13.492188 -8.386719 -12.820312 -9.160156 -11.5625 -9.191406 L -11.671875 -13.699219 C -15.085938 -13.617188 -17.230469 -10.953125 -17.132812 -6.875 C -17.039062 -2.960938 -15.035156 -0.589844 -11.90625 -0.664062 C -9.105469 -0.730469 -7.417969 -2.597656 -6.796875 -6.363281 C -6.441406 -8.390625 -5.847656 -9.375 -4.898438 -9.398438 C -4.070312 -9.417969 -3.578125 -8.71875 -3.550781 -7.554688 C -3.519531 -6.179688 -4.234375 -5.355469 -5.515625 -5.324219 L -5.402344 -0.699219 C -1.824219 -0.785156 0.273438 -3.398438 0.171875 -7.714844 Z M 0.171875 -7.714844 "/></g></g></g><g fill="#410179" fill-opacity="1"><g transform="translate(41.727515, 181.809229)"><g><path d="M 1.410156 -11.585938 L 1.988281 -16.34375 L -14.5 -18.347656 L -15.078125 -13.589844 L -9.164062 -12.871094 L -9.785156 -7.785156 L -15.695312 -8.503906 L -16.273438 -3.746094 L 0.210938 -1.742188 L 0.789062 -6.5 L -5.402344 -7.253906 L -4.785156 -12.339844 Z M 1.410156 -11.585938 "/></g></g></g><g fill="#410179" fill-opacity="1"><g transform="translate(44.761586, 159.545019)"><g><path d="M 0.480469 -1.6875 L 2.40625 -8.464844 C 3.875 -13.625 1.675781 -17.949219 -3.140625 -19.316406 C -7.933594 -20.679688 -12.101562 -18.164062 -13.566406 -13.007812 L -15.492188 -6.230469 Z M -2.339844 -7.472656 L -10.050781 -9.664062 L -9.476562 -11.695312 C -8.78125 -14.136719 -6.828125 -15.285156 -4.476562 -14.617188 C -2.125 -13.949219 -1.066406 -11.945312 -1.761719 -9.503906 Z M -2.339844 -7.472656 "/></g></g></g><g fill="#410179" fill-opacity="1"><g transform="translate(51.614482, 137.593516)"><g><path d="M 0.683594 -1.617188 L 2.554688 -6.03125 L -12.738281 -12.503906 L -14.609375 -8.089844 Z M 0.683594 -1.617188 "/></g></g></g><g fill="#410179" fill-opacity="1"><g transform="translate(56.948474, 125.638033)"><g/></g></g><g fill="#410179" fill-opacity="1"><g transform="translate(61.522238, 116.679105)"><g><path d="M 0.980469 -1.457031 L 3.660156 -5.429688 L -1.550781 -8.945312 L -0.554688 -10.417969 L -0.382812 -10.675781 L 6.605469 -9.796875 L 9.710938 -14.398438 L 0.582031 -15.289062 C 0.371094 -16.035156 -0.0273438 -16.84375 -0.621094 -17.703125 L -4.375 -23.210938 L -7.28125 -18.902344 L -4.675781 -15.34375 C -3.753906 -14.121094 -3.761719 -13.46875 -4.71875 -12.054688 L -5.167969 -11.386719 L -10.105469 -14.714844 L -12.785156 -10.742188 Z M 0.980469 -1.457031 "/></g></g></g><g fill="#410179" fill-opacity="1"><g transform="translate(74.198725, 98.449369)"><g><path d="M 7.933594 -8.5625 L 11.191406 -12.074219 L -0.988281 -23.363281 L -4.246094 -19.851562 L 0.121094 -15.800781 L -3.359375 -12.042969 L -7.726562 -16.089844 L -10.984375 -12.578125 L 1.195312 -1.289062 L 4.453125 -4.800781 L -0.125 -9.042969 L 3.359375 -12.800781 Z M 7.933594 -8.5625 "/></g></g></g><g fill="#410179" fill-opacity="1"><g transform="translate(89.735503, 82.196131)"><g><path d="M 0.09375 -0.0742188 L 4.074219 -3.222656 L 3.324219 -5.625 L 7.769531 -9.144531 L 9.933594 -7.859375 L 13.933594 -11.027344 L -1.429688 -20.046875 L -5.152344 -17.101562 Z M 1.925781 -8.996094 L 0.183594 -14.183594 L 4.828125 -11.292969 Z M 1.925781 -8.996094 "/></g></g></g><g fill="#410179" fill-opacity="1"><g transform="translate(107.295215, 68.693536)"><g><path d="M 1.527344 -0.863281 L 5.660156 -3.199219 L 1.488281 -10.570312 L 11.152344 -6.304688 L 14.539062 -8.21875 L 6.363281 -22.675781 L 2.253906 -20.351562 L 6.402344 -13.023438 L -3.238281 -17.246094 L -6.644531 -15.320312 Z M 1.527344 -0.863281 "/></g></g></g><g fill="#410179" fill-opacity="1"><g transform="translate(127.628676, 57.915402)"><g/></g></g><g fill="#410179" fill-opacity="1"><g transform="translate(136.895174, 53.934289)"><g><path d="M 1.679688 -0.507812 L 9.835938 -2.960938 C 13.0625 -3.933594 14.765625 -6.425781 13.976562 -9.039062 C 13.472656 -10.71875 12.152344 -11.808594 10.453125 -12.015625 C 11.46875 -13.089844 11.789062 -14.574219 11.332031 -16.097656 C 10.546875 -18.710938 7.957031 -19.738281 4.640625 -18.742188 L -3.105469 -16.40625 Z M 5.152344 -5.269531 L 4.257812 -8.242188 L 7.027344 -9.078125 C 8.117188 -9.40625 8.898438 -9.046875 9.175781 -8.113281 C 9.464844 -7.160156 9.015625 -6.429688 7.925781 -6.101562 Z M 3.273438 -11.515625 L 2.410156 -14.378906 L 4.796875 -15.09375 C 5.863281 -15.417969 6.613281 -15.074219 6.886719 -14.164062 C 7.164062 -13.230469 6.726562 -12.554688 5.65625 -12.234375 Z M 3.273438 -11.515625 "/></g></g></g><g fill="#410179" fill-opacity="1"><g transform="translate(157.06518, 48.149302)"><g><path d="M 0.117188 -0.015625 L 5.140625 -0.742188 L 5.699219 -3.195312 L 11.308594 -4.007812 L 12.539062 -1.8125 L 17.585938 -2.542969 L 8.824219 -18.054688 L 4.128906 -17.375 Z M 6.183594 -6.816406 L 7.277344 -12.175781 L 9.84375 -7.34375 Z M 6.183594 -6.816406 "/></g></g></g><g fill="#410179" fill-opacity="1"><g transform="translate(179.063864, 45.324962)"><g><path d="M 1.753906 0.0117188 L 6.546875 0.0429688 L 6.578125 -4.675781 L 8.382812 -4.664062 L 10.722656 0.0703125 L 16.15625 0.105469 L 13.132812 -5.511719 C 14.894531 -6.472656 15.902344 -8.222656 15.917969 -10.546875 C 15.941406 -14.222656 13.464844 -16.519531 9.433594 -16.542969 L 1.867188 -16.59375 Z M 6.507812 -8.496094 L 6.535156 -12.648438 L 8.765625 -12.632812 C 10.285156 -12.625 11.109375 -11.882812 11.101562 -10.554688 C 11.09375 -9.226562 10.257812 -8.472656 8.738281 -8.484375 Z M 6.507812 -8.496094 "/></g></g></g><g fill="#410179" fill-opacity="1"><g transform="translate(200.636792, 45.995853)"><g><path d="M 1.742188 0.21875 L 6.496094 0.820312 L 8.574219 -15.65625 L 3.816406 -16.257812 Z M 1.742188 0.21875 "/></g></g></g><g fill="#410179" fill-opacity="1"><g transform="translate(213.592408, 47.880079)"><g/></g></g><g fill="#410179" fill-opacity="1"><g transform="translate(223.458099, 49.846219)"><g><path d="M 1.667969 0.550781 L 6.21875 2.046875 L 8.1875 -3.921875 L 9.875 -3.367188 L 10.167969 -3.269531 L 11.222656 3.695312 L 16.496094 5.433594 L 14.871094 -3.59375 C 15.53125 -4 16.203125 -4.601562 16.867188 -5.410156 L 21.148438 -10.519531 L 16.214844 -12.144531 L 13.496094 -8.667969 C 12.570312 -7.449219 11.941406 -7.28125 10.316406 -7.816406 L 9.550781 -8.070312 L 11.414062 -13.722656 L 6.863281 -15.222656 Z M 1.667969 0.550781 "/></g></g></g><g fill="#410179" fill-opacity="1"><g transform="translate(244.564533, 57.395131)"><g><path d="M 1.589844 0.746094 L 5.925781 2.789062 L 12.996094 -12.238281 L 8.660156 -14.28125 Z M 1.589844 0.746094 "/></g></g></g><g fill="#410179" fill-opacity="1"><g transform="translate(256.165845, 62.808555)"><g><path d="M 1.484375 0.9375 L 5.496094 3.46875 L 10.019531 -3.691406 L 10.832031 6.839844 L 14.125 8.914062 L 22.988281 -5.128906 L 18.996094 -7.648438 L 14.5 -0.527344 L 13.660156 -11.015625 L 10.347656 -13.105469 Z M 1.484375 0.9375 "/></g></g></g><g fill="#410179" fill-opacity="1"><g transform="translate(275.205971, 75.221779)"><g><path d="M 1.320312 1.15625 L 6.617188 5.804688 C 10.648438 9.339844 15.5 9.207031 18.800781 5.441406 C 22.082031 1.695312 21.597656 -3.148438 17.566406 -6.683594 L 12.269531 -11.328125 Z M 7.753906 1.089844 L 13.042969 -4.941406 L 14.628906 -3.546875 C 16.539062 -1.875 16.734375 0.382812 15.125 2.21875 C 13.511719 4.058594 11.25 4.15625 9.339844 2.480469 Z M 7.753906 1.089844 "/></g></g></g><g fill="#410179" fill-opacity="1"><g transform="translate(292.087046, 90.63237)"><g><path d="M 1.140625 1.335938 L 8.707031 10.191406 L 11.683594 7.648438 L 7.199219 2.398438 L 9.148438 0.734375 L 13.046875 5.296875 L 15.96875 2.800781 L 12.070312 -1.761719 L 13.910156 -3.335938 L 18.222656 1.714844 L 21.164062 -0.796875 L 13.765625 -9.453125 Z M 1.140625 1.335938 "/></g></g></g><g fill="#410179" fill-opacity="1"><g transform="translate(304.167237, 105.101794)"><g><path d="M 0.945312 1.480469 L 3.523438 5.519531 L 7.503906 2.980469 L 8.472656 4.5 L 5.769531 9.039062 L 8.691406 13.617188 L 11.765625 8.027344 C 13.53125 8.980469 15.546875 8.878906 17.507812 7.625 C 20.605469 5.648438 21.183594 2.324219 19.015625 -1.078125 L 14.941406 -7.457031 Z M 10.671875 0.84375 L 14.171875 -1.390625 L 15.371094 0.488281 C 16.1875 1.769531 16.015625 2.863281 14.894531 3.578125 C 13.773438 4.292969 12.6875 4.003906 11.871094 2.722656 Z M 10.671875 0.84375 "/></g></g></g><g fill="#410179" fill-opacity="1"><g transform="translate(315.447329, 123.226945)"><g><path d="M 3.5625 9.007812 C 5.859375 14.242188 11.101562 15.855469 16.234375 13.03125 L 12.375 4.234375 L 9.289062 5.585938 L 11.128906 9.78125 C 9.65625 9.90625 8.253906 9.074219 7.492188 7.335938 C 6.425781 4.902344 7.523438 2.738281 9.824219 1.726562 C 12.214844 0.675781 14.519531 1.503906 15.511719 3.765625 C 16.101562 5.113281 16.019531 6.519531 15.324219 7.527344 L 17.371094 12.199219 C 20.304688 9.847656 21.082031 5.828125 19.394531 1.984375 C 17.296875 -2.796875 12.597656 -4.648438 7.929688 -2.597656 C 3.234375 -0.539062 1.445312 4.183594 3.5625 9.007812 Z M 3.5625 9.007812 "/></g></g></g><g fill="#410179" fill-opacity="1"><g transform="translate(324.535755, 144.901632)"><g><path d="M 0.03125 0.113281 L 1.316406 5.027344 L 3.816406 5.304688 L 5.253906 10.789062 L 3.207031 12.253906 L 4.5 17.191406 L 18.933594 6.742188 L 17.730469 2.152344 Z M 7.464844 5.378906 L 12.914062 5.863281 L 8.402344 8.957031 Z M 7.464844 5.378906 "/></g></g></g><g fill="#410179" fill-opacity="1"><g transform="translate(329.808459, 166.448134)"><g><path d="M 0.1875 1.746094 L 0.691406 6.511719 L 5.386719 6.011719 L 5.578125 7.804688 L 1.132812 10.664062 L 1.707031 16.066406 L 6.953125 12.429688 C 8.105469 14.074219 9.957031 14.878906 12.265625 14.632812 C 15.925781 14.246094 17.925781 11.527344 17.5 7.515625 L 16.699219 -0.0078125 Z M 9.175781 5.515625 L 13.304688 5.074219 L 13.539062 7.292969 C 13.699219 8.804688 13.054688 9.707031 11.734375 9.847656 C 10.414062 9.988281 9.570312 9.242188 9.410156 7.730469 Z M 9.175781 5.515625 "/></g></g></g><g fill="#410179" fill-opacity="1"><g transform="translate(331.729761, 187.77092)"><g><path d="M -0.222656 5.714844 L -0.40625 10.476562 L 11.753906 10.949219 L 11.558594 16 L 15.992188 16.171875 L 16.570312 1.308594 L 12.136719 1.136719 L 11.941406 6.183594 Z M -0.222656 5.714844 "/></g></g></g><g fill="#410179" fill-opacity="1"><g transform="translate(330.576516, 208.328194)"><g><path d="M -0.304688 1.730469 L -2.332031 13.199219 L 1.523438 13.878906 L 2.722656 7.082031 L 5.246094 7.527344 L 4.203125 13.4375 L 7.988281 14.109375 L 9.03125 8.195312 L 11.414062 8.617188 L 10.257812 15.160156 L 14.066406 15.832031 L 16.046875 4.617188 Z M -0.304688 1.730469 "/></g></g></g><g fill="#410179" fill-opacity="1"><g transform="translate(327.140136, 226.829019)"><g><path d="M -0.550781 1.667969 L -2.035156 6.171875 L 6.007812 8.824219 L -4.011719 12.167969 L -5.230469 15.863281 L 10.542969 21.0625 L 12.019531 16.578125 L 4.023438 13.941406 L 13.996094 10.585938 L 15.222656 6.867188 Z M -0.550781 1.667969 "/></g></g></g><g fill="#000000" fill-opacity="1"><g transform="translate(77.939454, 304.289669)"><g><path d="M 13.71875 -2.65625 C 14.03125 -2.695312 14.300781 -2.738281 14.53125 -2.78125 C 14.769531 -2.832031 14.972656 -2.890625 15.140625 -2.953125 C 15.316406 -3.023438 15.46875 -3.101562 15.59375 -3.1875 C 15.726562 -3.28125 15.84375 -3.378906 15.9375 -3.484375 C 16.082031 -3.660156 16.109375 -3.835938 16.015625 -4.015625 C 15.929688 -4.191406 15.734375 -4.414062 15.421875 -4.6875 L 16.09375 -5.5 L 20.328125 -1.953125 L 19.65625 -1.140625 C 19.445312 -1.316406 19.21875 -1.453125 18.96875 -1.546875 C 18.726562 -1.648438 18.460938 -1.710938 18.171875 -1.734375 C 17.890625 -1.765625 17.585938 -1.769531 17.265625 -1.75 C 16.953125 -1.738281 16.617188 -1.703125 16.265625 -1.640625 L 12.3125 -1.09375 L 11.359375 5.9375 C 11.316406 6.300781 11.296875 6.617188 11.296875 6.890625 C 11.304688 7.171875 11.34375 7.421875 11.40625 7.640625 C 11.46875 7.859375 11.554688 8.050781 11.671875 8.21875 C 11.785156 8.382812 11.925781 8.535156 12.09375 8.671875 L 12.15625 8.734375 L 11.46875 9.5625 L 10.625 8.859375 C 10.226562 8.523438 9.890625 8.21875 9.609375 7.9375 C 9.328125 7.664062 9.09375 7.410156 8.90625 7.171875 C 8.726562 6.929688 8.59375 6.703125 8.5 6.484375 C 8.40625 6.273438 8.335938 6.066406 8.296875 5.859375 C 8.265625 5.648438 8.253906 5.4375 8.265625 5.21875 C 8.273438 5 8.304688 4.769531 8.359375 4.53125 L 9.234375 -0.8125 L 8.109375 -0.859375 L 5.90625 1.78125 C 5.71875 2 5.585938 2.195312 5.515625 2.375 C 5.453125 2.550781 5.425781 2.703125 5.4375 2.828125 C 5.445312 2.953125 5.488281 3.066406 5.5625 3.171875 C 5.644531 3.285156 5.742188 3.390625 5.859375 3.484375 L 6.515625 4.03125 L 5.828125 4.859375 L 0.4375 0.359375 L 1.125 -0.46875 L 1.78125 0.078125 C 1.894531 0.171875 2.003906 0.25 2.109375 0.3125 C 2.222656 0.375 2.34375 0.398438 2.46875 0.390625 C 2.601562 0.390625 2.738281 0.34375 2.875 0.25 C 3.019531 0.164062 3.179688 0.0195312 3.359375 -0.1875 L 9.703125 -7.796875 C 9.878906 -8.003906 10 -8.1875 10.0625 -8.34375 C 10.125 -8.507812 10.144531 -8.65625 10.125 -8.78125 C 10.113281 -8.90625 10.066406 -9.019531 9.984375 -9.125 C 9.910156 -9.226562 9.816406 -9.328125 9.703125 -9.421875 L 9.046875 -9.96875 L 9.734375 -10.796875 L 15.125 -6.296875 L 14.4375 -5.46875 L 13.78125 -6.015625 C 13.664062 -6.109375 13.550781 -6.1875 13.4375 -6.25 C 13.320312 -6.3125 13.195312 -6.332031 13.0625 -6.3125 C 12.925781 -6.300781 12.78125 -6.25 12.625 -6.15625 C 12.476562 -6.070312 12.3125 -5.914062 12.125 -5.6875 L 9.078125 -2.046875 Z M 13.71875 -2.65625 "/></g></g></g><g fill="#000000" fill-opacity="1"><g transform="translate(91.649912, 315.537759)"><g><path d="M 6.34375 -1.53125 L 4.875 -0.40625 C 4.738281 -0.289062 4.585938 -0.15625 4.421875 0 C 4.253906 0.144531 4.125 0.285156 4.03125 0.421875 C 3.957031 0.535156 3.914062 0.644531 3.90625 0.75 C 3.894531 0.863281 3.90625 0.972656 3.9375 1.078125 C 3.976562 1.179688 4.035156 1.273438 4.109375 1.359375 C 4.179688 1.441406 4.265625 1.515625 4.359375 1.578125 L 5.078125 2.0625 L 4.484375 2.96875 L 0.0625 0.046875 L 0.65625 -0.859375 L 0.875 -0.71875 C 1.019531 -0.625 1.164062 -0.550781 1.3125 -0.5 C 1.457031 -0.445312 1.613281 -0.429688 1.78125 -0.453125 C 1.957031 -0.472656 2.144531 -0.53125 2.34375 -0.625 C 2.550781 -0.726562 2.785156 -0.875 3.046875 -1.0625 L 13.328125 -8.59375 L 15.65625 -7.0625 L 12.59375 5.265625 C 12.519531 5.566406 12.472656 5.828125 12.453125 6.046875 C 12.441406 6.265625 12.457031 6.453125 12.5 6.609375 C 12.550781 6.773438 12.625 6.914062 12.71875 7.03125 C 12.820312 7.15625 12.9375 7.257812 13.0625 7.34375 L 13.359375 7.546875 L 12.765625 8.453125 L 7.171875 4.75 L 7.765625 3.84375 L 8.421875 4.28125 C 8.515625 4.332031 8.609375 4.375 8.703125 4.40625 C 8.804688 4.4375 8.910156 4.445312 9.015625 4.4375 C 9.128906 4.4375 9.234375 4.410156 9.328125 4.359375 C 9.421875 4.316406 9.507812 4.234375 9.59375 4.109375 C 9.6875 3.972656 9.757812 3.828125 9.8125 3.671875 C 9.863281 3.523438 9.90625 3.398438 9.9375 3.296875 L 10.453125 1.1875 Z M 11.75 -3.453125 C 11.8125 -3.679688 11.882812 -3.921875 11.96875 -4.171875 C 12.050781 -4.429688 12.128906 -4.691406 12.203125 -4.953125 C 12.285156 -5.210938 12.367188 -5.46875 12.453125 -5.71875 C 12.535156 -5.976562 12.625 -6.222656 12.71875 -6.453125 C 12.550781 -6.304688 12.367188 -6.15625 12.171875 -6 C 11.972656 -5.84375 11.765625 -5.679688 11.546875 -5.515625 C 11.328125 -5.347656 11.109375 -5.179688 10.890625 -5.015625 C 10.671875 -4.859375 10.46875 -4.703125 10.28125 -4.546875 L 7.359375 -2.328125 L 10.796875 -0.0625 Z M 11.75 -3.453125 "/></g></g></g><g fill="#000000" fill-opacity="1"><g transform="translate(106.83327, 325.337867)"><g><path d="M 15.671875 -3.34375 C 15.390625 -2.800781 15.023438 -2.328125 14.578125 -1.921875 C 14.140625 -1.523438 13.609375 -1.242188 12.984375 -1.078125 C 12.359375 -0.910156 11.648438 -0.890625 10.859375 -1.015625 C 10.066406 -1.148438 9.1875 -1.46875 8.21875 -1.96875 L 7.59375 -2.296875 L 6.09375 0.59375 C 5.96875 0.832031 5.894531 1.035156 5.875 1.203125 C 5.851562 1.367188 5.863281 1.507812 5.90625 1.625 C 5.957031 1.75 6.035156 1.851562 6.140625 1.9375 C 6.253906 2.03125 6.367188 2.109375 6.484375 2.171875 L 7.59375 2.75 L 7.09375 3.703125 L 0.5 0.265625 L 1 -0.6875 L 1.765625 -0.296875 C 1.898438 -0.222656 2.03125 -0.171875 2.15625 -0.140625 C 2.28125 -0.117188 2.398438 -0.125 2.515625 -0.15625 C 2.640625 -0.195312 2.765625 -0.28125 2.890625 -0.40625 C 3.023438 -0.539062 3.160156 -0.738281 3.296875 -1 L 7.828125 -9.6875 C 7.953125 -9.925781 8.023438 -10.128906 8.046875 -10.296875 C 8.078125 -10.472656 8.066406 -10.617188 8.015625 -10.734375 C 7.972656 -10.847656 7.90625 -10.945312 7.8125 -11.03125 C 7.71875 -11.125 7.609375 -11.207031 7.484375 -11.28125 L 6.71875 -11.671875 L 7.203125 -12.609375 L 12.75 -9.71875 C 13.570312 -9.289062 14.25 -8.828125 14.78125 -8.328125 C 15.3125 -7.828125 15.691406 -7.300781 15.921875 -6.75 C 16.160156 -6.207031 16.253906 -5.648438 16.203125 -5.078125 C 16.160156 -4.515625 15.984375 -3.9375 15.671875 -3.34375 Z M 8.140625 -3.34375 L 8.578125 -3.109375 C 9.023438 -2.878906 9.429688 -2.738281 9.796875 -2.6875 C 10.171875 -2.632812 10.515625 -2.675781 10.828125 -2.8125 C 11.148438 -2.957031 11.457031 -3.195312 11.75 -3.53125 C 12.050781 -3.863281 12.335938 -4.300781 12.609375 -4.84375 C 12.867188 -5.332031 13.050781 -5.773438 13.15625 -6.171875 C 13.269531 -6.566406 13.296875 -6.925781 13.234375 -7.25 C 13.179688 -7.570312 13.046875 -7.859375 12.828125 -8.109375 C 12.609375 -8.367188 12.296875 -8.609375 11.890625 -8.828125 L 11.1875 -9.1875 Z M 8.140625 -3.34375 "/></g></g></g><g fill="#000000" fill-opacity="1"><g transform="translate(120.831841, 332.542858)"><g><path d="M 5.875 -2.828125 L 4.6875 -1.40625 C 4.570312 -1.269531 4.445312 -1.109375 4.3125 -0.921875 C 4.1875 -0.734375 4.09375 -0.566406 4.03125 -0.421875 C 3.976562 -0.296875 3.957031 -0.175781 3.96875 -0.0625 C 3.976562 0.0390625 4.015625 0.132812 4.078125 0.21875 C 4.140625 0.3125 4.210938 0.394531 4.296875 0.46875 C 4.390625 0.550781 4.488281 0.613281 4.59375 0.65625 L 5.390625 0.96875 L 5 1.96875 L 0.078125 0.03125 L 0.46875 -0.96875 L 0.703125 -0.875 C 0.859375 -0.8125 1.015625 -0.769531 1.171875 -0.75 C 1.328125 -0.738281 1.488281 -0.757812 1.65625 -0.8125 C 1.820312 -0.863281 1.992188 -0.957031 2.171875 -1.09375 C 2.347656 -1.238281 2.539062 -1.429688 2.75 -1.671875 L 11.25 -11.15625 L 13.84375 -10.140625 L 13.40625 2.546875 C 13.394531 2.859375 13.40625 3.125 13.4375 3.34375 C 13.46875 3.5625 13.523438 3.742188 13.609375 3.890625 C 13.691406 4.035156 13.789062 4.15625 13.90625 4.25 C 14.019531 4.351562 14.148438 4.4375 14.296875 4.5 L 14.625 4.625 L 14.234375 5.625 L 8 3.15625 L 8.390625 2.15625 L 9.125 2.453125 C 9.21875 2.492188 9.320312 2.515625 9.4375 2.515625 C 9.550781 2.523438 9.65625 2.515625 9.75 2.484375 C 9.851562 2.460938 9.945312 2.410156 10.03125 2.328125 C 10.113281 2.253906 10.179688 2.148438 10.234375 2.015625 C 10.296875 1.867188 10.335938 1.71875 10.359375 1.5625 C 10.390625 1.414062 10.398438 1.28125 10.390625 1.15625 L 10.46875 -1.015625 Z M 10.78125 -5.796875 C 10.789062 -6.046875 10.804688 -6.300781 10.828125 -6.5625 C 10.859375 -6.820312 10.882812 -7.09375 10.90625 -7.375 C 10.9375 -7.65625 10.96875 -7.925781 11 -8.1875 C 11.03125 -8.445312 11.066406 -8.695312 11.109375 -8.9375 C 10.972656 -8.769531 10.820312 -8.585938 10.65625 -8.390625 C 10.5 -8.191406 10.332031 -7.988281 10.15625 -7.78125 C 9.976562 -7.582031 9.796875 -7.378906 9.609375 -7.171875 C 9.429688 -6.960938 9.265625 -6.757812 9.109375 -6.5625 L 6.71875 -3.8125 L 10.546875 -2.296875 Z M 10.78125 -5.796875 "/></g></g></g><g fill="#000000" fill-opacity="1"><g transform="translate(137.696561, 338.96709)"><g><path d="M 5.109375 1.671875 C 4.222656 1.421875 3.507812 1.128906 2.96875 0.796875 C 2.4375 0.460938 2.03125 0.117188 1.75 -0.234375 C 1.476562 -0.597656 1.3125 -0.960938 1.25 -1.328125 C 1.195312 -1.703125 1.21875 -2.050781 1.3125 -2.375 C 1.40625 -2.707031 1.546875 -2.972656 1.734375 -3.171875 C 1.929688 -3.378906 2.148438 -3.523438 2.390625 -3.609375 C 2.640625 -3.691406 2.90625 -3.726562 3.1875 -3.71875 C 3.46875 -3.707031 3.75 -3.660156 4.03125 -3.578125 C 3.875 -3.015625 3.800781 -2.5 3.8125 -2.03125 C 3.832031 -1.570312 3.914062 -1.164062 4.0625 -0.8125 C 4.21875 -0.457031 4.441406 -0.164062 4.734375 0.0625 C 5.035156 0.289062 5.375 0.457031 5.75 0.5625 C 6.132812 0.664062 6.488281 0.707031 6.8125 0.6875 C 7.144531 0.675781 7.441406 0.601562 7.703125 0.46875 C 7.972656 0.332031 8.195312 0.15625 8.375 -0.0625 C 8.5625 -0.289062 8.695312 -0.554688 8.78125 -0.859375 C 8.875 -1.191406 8.890625 -1.503906 8.828125 -1.796875 C 8.765625 -2.097656 8.628906 -2.394531 8.421875 -2.6875 C 8.210938 -2.976562 7.929688 -3.28125 7.578125 -3.59375 C 7.222656 -3.914062 6.800781 -4.269531 6.3125 -4.65625 C 5.71875 -5.132812 5.226562 -5.585938 4.84375 -6.015625 C 4.457031 -6.441406 4.171875 -6.867188 3.984375 -7.296875 C 3.796875 -7.722656 3.695312 -8.148438 3.6875 -8.578125 C 3.675781 -9.015625 3.738281 -9.472656 3.875 -9.953125 C 4.050781 -10.554688 4.328125 -11.0625 4.703125 -11.46875 C 5.078125 -11.882812 5.523438 -12.207031 6.046875 -12.4375 C 6.578125 -12.664062 7.160156 -12.785156 7.796875 -12.796875 C 8.429688 -12.816406 9.097656 -12.734375 9.796875 -12.546875 C 10.515625 -12.335938 11.113281 -12.097656 11.59375 -11.828125 C 12.082031 -11.566406 12.46875 -11.285156 12.75 -10.984375 C 13.03125 -10.691406 13.210938 -10.378906 13.296875 -10.046875 C 13.390625 -9.722656 13.390625 -9.398438 13.296875 -9.078125 C 13.234375 -8.859375 13.125 -8.660156 12.96875 -8.484375 C 12.8125 -8.316406 12.609375 -8.1875 12.359375 -8.09375 C 12.117188 -8.007812 11.835938 -7.96875 11.515625 -7.96875 C 11.203125 -7.96875 10.84375 -8.023438 10.4375 -8.140625 C 10.507812 -8.421875 10.554688 -8.726562 10.578125 -9.0625 C 10.597656 -9.40625 10.5625 -9.734375 10.46875 -10.046875 C 10.375 -10.367188 10.222656 -10.648438 10.015625 -10.890625 C 9.804688 -11.140625 9.507812 -11.316406 9.125 -11.421875 C 8.863281 -11.492188 8.601562 -11.523438 8.34375 -11.515625 C 8.09375 -11.515625 7.859375 -11.460938 7.640625 -11.359375 C 7.421875 -11.265625 7.226562 -11.113281 7.0625 -10.90625 C 6.894531 -10.707031 6.769531 -10.460938 6.6875 -10.171875 C 6.613281 -9.898438 6.582031 -9.628906 6.59375 -9.359375 C 6.613281 -9.097656 6.710938 -8.816406 6.890625 -8.515625 C 7.066406 -8.210938 7.328125 -7.882812 7.671875 -7.53125 C 8.023438 -7.1875 8.492188 -6.785156 9.078125 -6.328125 C 9.679688 -5.867188 10.175781 -5.425781 10.5625 -5 C 10.945312 -4.582031 11.242188 -4.164062 11.453125 -3.75 C 11.671875 -3.332031 11.789062 -2.910156 11.8125 -2.484375 C 11.84375 -2.054688 11.789062 -1.601562 11.65625 -1.125 C 11.476562 -0.488281 11.1875 0.0507812 10.78125 0.5 C 10.382812 0.957031 9.898438 1.304688 9.328125 1.546875 C 8.765625 1.796875 8.125 1.9375 7.40625 1.96875 C 6.6875 2 5.921875 1.898438 5.109375 1.671875 Z M 5.109375 1.671875 "/></g></g></g><g fill="#000000" fill-opacity="1"><g transform="translate(151.684125, 342.741977)"><g><path d="M 0.546875 0.109375 L 0.765625 -0.953125 L 1.609375 -0.78125 C 1.765625 -0.75 1.90625 -0.734375 2.03125 -0.734375 C 2.15625 -0.742188 2.269531 -0.785156 2.375 -0.859375 C 2.476562 -0.929688 2.578125 -1.046875 2.671875 -1.203125 C 2.765625 -1.367188 2.835938 -1.59375 2.890625 -1.875 L 4.8125 -11.40625 C 4.863281 -11.6875 4.878906 -11.914062 4.859375 -12.09375 C 4.835938 -12.28125 4.789062 -12.421875 4.71875 -12.515625 C 4.644531 -12.617188 4.550781 -12.695312 4.4375 -12.75 C 4.320312 -12.8125 4.1875 -12.859375 4.03125 -12.890625 L 3.1875 -13.0625 L 3.40625 -14.125 L 10.3125 -12.734375 L 10.09375 -11.671875 L 9.25 -11.84375 C 9.101562 -11.875 8.960938 -11.882812 8.828125 -11.875 C 8.691406 -11.875 8.570312 -11.835938 8.46875 -11.765625 C 8.363281 -11.703125 8.265625 -11.585938 8.171875 -11.421875 C 8.085938 -11.265625 8.019531 -11.046875 7.96875 -10.765625 L 6.046875 -1.234375 C 5.992188 -0.953125 5.972656 -0.71875 5.984375 -0.53125 C 6.003906 -0.351562 6.050781 -0.210938 6.125 -0.109375 C 6.195312 -0.00390625 6.296875 0.0703125 6.421875 0.125 C 6.546875 0.1875 6.679688 0.234375 6.828125 0.265625 L 7.671875 0.4375 L 7.453125 1.5 Z M 0.546875 0.109375 "/></g></g></g><g fill="#000000" fill-opacity="1"><g transform="translate(162.274265, 344.908715)"><g><path d="M 4.921875 -4.265625 L 4.15625 -2.59375 C 4.082031 -2.4375 4.003906 -2.25 3.921875 -2.03125 C 3.847656 -1.8125 3.800781 -1.625 3.78125 -1.46875 C 3.769531 -1.332031 3.785156 -1.210938 3.828125 -1.109375 C 3.867188 -1.003906 3.925781 -0.914062 4 -0.84375 C 4.070312 -0.78125 4.160156 -0.722656 4.265625 -0.671875 C 4.378906 -0.628906 4.492188 -0.597656 4.609375 -0.578125 L 5.46875 -0.484375 L 5.34375 0.59375 L 0.078125 0.015625 L 0.203125 -1.0625 L 0.453125 -1.046875 C 0.628906 -1.023438 0.789062 -1.023438 0.9375 -1.046875 C 1.09375 -1.078125 1.238281 -1.132812 1.375 -1.21875 C 1.519531 -1.3125 1.660156 -1.445312 1.796875 -1.625 C 1.929688 -1.8125 2.070312 -2.046875 2.21875 -2.328125 L 7.921875 -13.71875 L 10.671875 -13.421875 L 13.609375 -1.0625 C 13.679688 -0.757812 13.757812 -0.507812 13.84375 -0.3125 C 13.9375 -0.113281 14.039062 0.0390625 14.15625 0.15625 C 14.28125 0.28125 14.410156 0.375 14.546875 0.4375 C 14.679688 0.5 14.828125 0.535156 14.984375 0.546875 L 15.34375 0.59375 L 15.21875 1.671875 L 8.5625 0.9375 L 8.6875 -0.140625 L 9.453125 -0.046875 C 9.554688 -0.0351562 9.660156 -0.0390625 9.765625 -0.0625 C 9.867188 -0.0820312 9.960938 -0.113281 10.046875 -0.15625 C 10.140625 -0.207031 10.21875 -0.28125 10.28125 -0.375 C 10.351562 -0.46875 10.394531 -0.585938 10.40625 -0.734375 C 10.425781 -0.890625 10.425781 -1.046875 10.40625 -1.203125 C 10.382812 -1.367188 10.359375 -1.507812 10.328125 -1.625 L 9.828125 -3.734375 Z M 8.859375 -8.4375 C 8.816406 -8.675781 8.769531 -8.925781 8.71875 -9.1875 C 8.675781 -9.445312 8.628906 -9.710938 8.578125 -9.984375 C 8.535156 -10.265625 8.492188 -10.535156 8.453125 -10.796875 C 8.410156 -11.054688 8.378906 -11.3125 8.359375 -11.5625 C 8.265625 -11.351562 8.164062 -11.132812 8.0625 -10.90625 C 7.957031 -10.675781 7.847656 -10.4375 7.734375 -10.1875 C 7.628906 -9.945312 7.515625 -9.703125 7.390625 -9.453125 C 7.273438 -9.203125 7.164062 -8.960938 7.0625 -8.734375 L 5.484375 -5.453125 L 9.578125 -5 Z M 8.859375 -8.4375 "/></g></g></g><g fill="#000000" fill-opacity="1"><g transform="translate(180.106533, 346.567639)"><g><path d="M 4.59375 -0.734375 C 4.570312 -0.296875 4.488281 0.117188 4.34375 0.515625 C 4.195312 0.910156 3.972656 1.273438 3.671875 1.609375 C 3.367188 1.953125 2.984375 2.253906 2.515625 2.515625 C 2.054688 2.773438 1.488281 2.988281 0.8125 3.15625 L 0.84375 2.109375 C 1.15625 2.003906 1.421875 1.898438 1.640625 1.796875 C 1.867188 1.703125 2.054688 1.59375 2.203125 1.46875 C 2.359375 1.351562 2.476562 1.222656 2.5625 1.078125 C 2.644531 0.929688 2.6875 0.757812 2.6875 0.5625 C 2.6875 0.4375 2.648438 0.328125 2.578125 0.234375 C 2.515625 0.148438 2.425781 0.0703125 2.3125 0 C 2.207031 -0.0703125 2.09375 -0.144531 1.96875 -0.21875 C 1.84375 -0.300781 1.722656 -0.398438 1.609375 -0.515625 C 1.503906 -0.640625 1.414062 -0.789062 1.34375 -0.96875 C 1.28125 -1.15625 1.253906 -1.382812 1.265625 -1.65625 C 1.273438 -2.113281 1.421875 -2.457031 1.703125 -2.6875 C 1.992188 -2.914062 2.347656 -3.023438 2.765625 -3.015625 C 3.335938 -3.003906 3.785156 -2.789062 4.109375 -2.375 C 4.441406 -1.96875 4.601562 -1.421875 4.59375 -0.734375 Z M 4.59375 -0.734375 "/></g></g></g><g fill="#000000" fill-opacity="1"><g transform="translate(188.457997, 346.731891)"><g/></g></g><g fill="#000000" fill-opacity="1"><g transform="translate(196.340943, 346.665774)"><g><path d="M 8.578125 -0.671875 C 7.328125 -0.546875 6.21875 -0.613281 5.25 -0.875 C 4.28125 -1.132812 3.445312 -1.554688 2.75 -2.140625 C 2.0625 -2.734375 1.519531 -3.472656 1.125 -4.359375 C 0.738281 -5.242188 0.492188 -6.242188 0.390625 -7.359375 C 0.273438 -8.453125 0.328125 -9.46875 0.546875 -10.40625 C 0.773438 -11.351562 1.171875 -12.179688 1.734375 -12.890625 C 2.304688 -13.609375 3.046875 -14.195312 3.953125 -14.65625 C 4.859375 -15.125 5.929688 -15.421875 7.171875 -15.546875 C 8.015625 -15.628906 8.753906 -15.640625 9.390625 -15.578125 C 10.023438 -15.515625 10.566406 -15.398438 11.015625 -15.234375 C 11.460938 -15.078125 11.804688 -14.863281 12.046875 -14.59375 C 12.285156 -14.332031 12.421875 -14.035156 12.453125 -13.703125 C 12.484375 -13.472656 12.453125 -13.25 12.359375 -13.03125 C 12.273438 -12.8125 12.128906 -12.609375 11.921875 -12.421875 C 11.710938 -12.234375 11.453125 -12.078125 11.140625 -11.953125 C 10.828125 -11.835938 10.457031 -11.757812 10.03125 -11.71875 C 9.988281 -12.125 9.898438 -12.492188 9.765625 -12.828125 C 9.628906 -13.160156 9.441406 -13.4375 9.203125 -13.65625 C 8.972656 -13.882812 8.691406 -14.050781 8.359375 -14.15625 C 8.023438 -14.269531 7.644531 -14.300781 7.21875 -14.25 C 6.476562 -14.175781 5.863281 -13.972656 5.375 -13.640625 C 4.894531 -13.316406 4.515625 -12.875 4.234375 -12.3125 C 3.960938 -11.757812 3.789062 -11.097656 3.71875 -10.328125 C 3.65625 -9.554688 3.675781 -8.6875 3.78125 -7.71875 C 3.875 -6.738281 4.035156 -5.878906 4.265625 -5.140625 C 4.492188 -4.398438 4.804688 -3.785156 5.203125 -3.296875 C 5.609375 -2.816406 6.097656 -2.472656 6.671875 -2.265625 C 7.242188 -2.066406 7.929688 -2.007812 8.734375 -2.09375 C 8.984375 -2.125 9.234375 -2.160156 9.484375 -2.203125 C 9.742188 -2.242188 9.988281 -2.304688 10.21875 -2.390625 L 9.921875 -5.359375 C 9.867188 -5.890625 9.707031 -6.25 9.4375 -6.4375 C 9.164062 -6.625 8.789062 -6.691406 8.3125 -6.640625 L 8.046875 -6.625 L 7.9375 -7.6875 L 14.296875 -8.328125 L 14.40625 -7.265625 L 14.140625 -7.25 C 13.929688 -7.226562 13.753906 -7.179688 13.609375 -7.109375 C 13.460938 -7.046875 13.347656 -6.945312 13.265625 -6.8125 C 13.179688 -6.6875 13.125 -6.523438 13.09375 -6.328125 C 13.070312 -6.128906 13.070312 -5.890625 13.09375 -5.609375 L 13.4375 -2.28125 C 12.695312 -1.832031 11.929688 -1.472656 11.140625 -1.203125 C 10.359375 -0.941406 9.503906 -0.765625 8.578125 -0.671875 Z M 8.578125 -0.671875 "/></g></g></g><g fill="#000000" fill-opacity="1"><g transform="translate(214.690666, 344.616883)"><g><path d="M 3.3125 -5.625 L 3.109375 -3.78125 C 3.085938 -3.601562 3.070312 -3.398438 3.0625 -3.171875 C 3.0625 -2.941406 3.078125 -2.75 3.109375 -2.59375 C 3.140625 -2.46875 3.1875 -2.359375 3.25 -2.265625 C 3.320312 -2.179688 3.410156 -2.117188 3.515625 -2.078125 C 3.617188 -2.035156 3.726562 -2.003906 3.84375 -1.984375 C 3.957031 -1.972656 4.066406 -1.984375 4.171875 -2.015625 L 5.015625 -2.1875 L 5.25 -1.140625 L 0.078125 -0.015625 L -0.15625 -1.0625 L 0.09375 -1.109375 C 0.257812 -1.148438 0.410156 -1.207031 0.546875 -1.28125 C 0.691406 -1.351562 0.816406 -1.457031 0.921875 -1.59375 C 1.023438 -1.738281 1.109375 -1.914062 1.171875 -2.125 C 1.242188 -2.332031 1.304688 -2.597656 1.359375 -2.921875 L 3.140625 -15.546875 L 5.859375 -16.140625 L 12.546875 -5.34375 C 12.710938 -5.082031 12.867188 -4.867188 13.015625 -4.703125 C 13.171875 -4.546875 13.320312 -4.425781 13.46875 -4.34375 C 13.613281 -4.269531 13.757812 -4.222656 13.90625 -4.203125 C 14.0625 -4.191406 14.21875 -4.203125 14.375 -4.234375 L 14.71875 -4.3125 L 14.953125 -3.265625 L 8.40625 -1.828125 L 8.171875 -2.875 L 8.9375 -3.046875 C 9.039062 -3.066406 9.140625 -3.101562 9.234375 -3.15625 C 9.328125 -3.207031 9.40625 -3.273438 9.46875 -3.359375 C 9.539062 -3.441406 9.59375 -3.535156 9.625 -3.640625 C 9.65625 -3.753906 9.65625 -3.878906 9.625 -4.015625 C 9.59375 -4.171875 9.539062 -4.320312 9.46875 -4.46875 C 9.40625 -4.613281 9.34375 -4.734375 9.28125 -4.828125 L 8.140625 -6.671875 Z M 5.703125 -10.828125 C 5.597656 -11.035156 5.476562 -11.253906 5.34375 -11.484375 C 5.21875 -11.722656 5.085938 -11.960938 4.953125 -12.203125 C 4.816406 -12.441406 4.691406 -12.679688 4.578125 -12.921875 C 4.460938 -13.160156 4.351562 -13.394531 4.25 -13.625 C 4.226562 -13.40625 4.203125 -13.164062 4.171875 -12.90625 C 4.148438 -12.65625 4.125 -12.394531 4.09375 -12.125 C 4.070312 -11.851562 4.039062 -11.582031 4 -11.3125 C 3.957031 -11.039062 3.925781 -10.78125 3.90625 -10.53125 L 3.46875 -6.90625 L 7.484375 -7.78125 Z M 5.703125 -10.828125 "/></g></g></g><g fill="#000000" fill-opacity="1"><g transform="translate(232.318693, 340.573479)"><g><path d="M 7.328125 -16.640625 L 3.9375 -2.609375 L 8.109375 -4 C 8.503906 -4.125 8.804688 -4.285156 9.015625 -4.484375 C 9.234375 -4.679688 9.382812 -4.894531 9.46875 -5.125 C 9.5625 -5.363281 9.601562 -5.609375 9.59375 -5.859375 C 9.582031 -6.109375 9.546875 -6.359375 9.484375 -6.609375 L 9.296875 -7.5 L 10.703125 -7.953125 L 11.921875 -3.953125 L 0.8125 -0.265625 L 0.5 -1.234375 L 3.859375 -15.28125 L 0.0625 -14.015625 C -0.238281 -13.921875 -0.472656 -13.796875 -0.640625 -13.640625 C -0.804688 -13.492188 -0.921875 -13.320312 -0.984375 -13.125 C -1.054688 -12.9375 -1.082031 -12.722656 -1.0625 -12.484375 C -1.039062 -12.242188 -1 -12 -0.9375 -11.75 L -0.6875 -10.65625 L -2.078125 -10.1875 L -3.296875 -14.203125 L 7 -17.625 Z M 7.328125 -16.640625 "/></g></g></g><g fill="#000000" fill-opacity="1"><g transform="translate(247.57729, 335.275025)"><g><path d="M 0.515625 -0.21875 L 0.09375 -1.203125 L 0.890625 -1.546875 C 1.023438 -1.609375 1.144531 -1.675781 1.25 -1.75 C 1.363281 -1.832031 1.4375 -1.9375 1.46875 -2.0625 C 1.507812 -2.1875 1.523438 -2.335938 1.515625 -2.515625 C 1.503906 -2.691406 1.441406 -2.914062 1.328125 -3.1875 L -2.5 -12.125 C -2.613281 -12.382812 -2.726562 -12.582031 -2.84375 -12.71875 C -2.96875 -12.863281 -3.082031 -12.957031 -3.1875 -13 C -3.300781 -13.039062 -3.425781 -13.050781 -3.5625 -13.03125 C -3.695312 -13.019531 -3.832031 -12.984375 -3.96875 -12.921875 L -4.765625 -12.578125 L -5.1875 -13.5625 L 1.28125 -16.328125 L 1.703125 -15.34375 L 0.90625 -15 C 0.769531 -14.945312 0.648438 -14.878906 0.546875 -14.796875 C 0.441406 -14.710938 0.363281 -14.613281 0.3125 -14.5 C 0.257812 -14.382812 0.242188 -14.234375 0.265625 -14.046875 C 0.285156 -13.867188 0.351562 -13.648438 0.46875 -13.390625 L 4.296875 -4.453125 C 4.410156 -4.179688 4.519531 -3.976562 4.625 -3.84375 C 4.738281 -3.707031 4.859375 -3.613281 4.984375 -3.5625 C 5.109375 -3.507812 5.234375 -3.492188 5.359375 -3.515625 C 5.492188 -3.535156 5.628906 -3.570312 5.765625 -3.625 L 6.5625 -3.96875 L 6.984375 -2.984375 Z M 0.515625 -0.21875 "/></g></g></g><g fill="#000000" fill-opacity="1"><g transform="translate(257.463696, 331.044817)"><g><path d="M 6.171875 -14.8125 C 6.460938 -14.257812 6.644531 -13.6875 6.71875 -13.09375 C 6.789062 -12.5 6.71875 -11.894531 6.5 -11.28125 C 6.28125 -10.675781 5.894531 -10.082031 5.34375 -9.5 C 4.789062 -8.925781 4.03125 -8.382812 3.0625 -7.875 L 2.4375 -7.546875 L 3.953125 -4.671875 C 4.078125 -4.429688 4.203125 -4.253906 4.328125 -4.140625 C 4.453125 -4.023438 4.582031 -3.953125 4.71875 -3.921875 C 4.851562 -3.898438 4.984375 -3.90625 5.109375 -3.9375 C 5.234375 -3.976562 5.351562 -4.03125 5.46875 -4.09375 L 6.578125 -4.6875 L 7.078125 -3.734375 L 0.5 -0.265625 L 0 -1.21875 L 0.765625 -1.609375 C 0.898438 -1.679688 1.015625 -1.757812 1.109375 -1.84375 C 1.203125 -1.9375 1.265625 -2.039062 1.296875 -2.15625 C 1.335938 -2.28125 1.34375 -2.429688 1.3125 -2.609375 C 1.28125 -2.796875 1.195312 -3.019531 1.0625 -3.28125 L -3.5 -11.953125 C -3.625 -12.191406 -3.75 -12.367188 -3.875 -12.484375 C -4.007812 -12.597656 -4.132812 -12.671875 -4.25 -12.703125 C -4.375 -12.734375 -4.5 -12.734375 -4.625 -12.703125 C -4.75 -12.679688 -4.875 -12.632812 -5 -12.5625 L -5.765625 -12.171875 L -6.265625 -13.109375 L -0.734375 -16.015625 C 0.0859375 -16.453125 0.851562 -16.742188 1.5625 -16.890625 C 2.28125 -17.046875 2.925781 -17.066406 3.5 -16.953125 C 4.082031 -16.835938 4.59375 -16.597656 5.03125 -16.234375 C 5.476562 -15.867188 5.859375 -15.394531 6.171875 -14.8125 Z M 1.875 -8.59375 L 2.3125 -8.828125 C 2.757812 -9.054688 3.109375 -9.3125 3.359375 -9.59375 C 3.617188 -9.875 3.78125 -10.1875 3.84375 -10.53125 C 3.914062 -10.875 3.894531 -11.257812 3.78125 -11.6875 C 3.675781 -12.113281 3.484375 -12.59375 3.203125 -13.125 C 2.941406 -13.613281 2.675781 -14.015625 2.40625 -14.328125 C 2.144531 -14.640625 1.863281 -14.863281 1.5625 -15 C 1.269531 -15.144531 0.957031 -15.203125 0.625 -15.171875 C 0.289062 -15.140625 -0.078125 -15.019531 -0.484375 -14.8125 L -1.1875 -14.4375 Z M 1.875 -8.59375 "/></g></g></g><g fill="#000000" fill-opacity="1"><g transform="translate(271.35006, 323.631992)"><g><path d="M 4.90625 -19.4375 L 4.171875 -18.953125 C 4.054688 -18.878906 3.953125 -18.789062 3.859375 -18.6875 C 3.773438 -18.59375 3.71875 -18.476562 3.6875 -18.34375 C 3.664062 -18.21875 3.679688 -18.070312 3.734375 -17.90625 C 3.785156 -17.738281 3.890625 -17.53125 4.046875 -17.28125 L 8.453125 -10.6875 C 8.828125 -10.125 9.082031 -9.5625 9.21875 -9 C 9.363281 -8.4375 9.367188 -7.882812 9.234375 -7.34375 C 9.109375 -6.800781 8.832031 -6.265625 8.40625 -5.734375 C 7.976562 -5.203125 7.394531 -4.691406 6.65625 -4.203125 C 5.925781 -3.710938 5.222656 -3.34375 4.546875 -3.09375 C 3.867188 -2.851562 3.222656 -2.753906 2.609375 -2.796875 C 2.003906 -2.835938 1.429688 -3.023438 0.890625 -3.359375 C 0.359375 -3.703125 -0.140625 -4.222656 -0.609375 -4.921875 L -4.921875 -11.390625 C -5.066406 -11.609375 -5.207031 -11.769531 -5.34375 -11.875 C -5.488281 -11.988281 -5.625 -12.050781 -5.75 -12.0625 C -5.875 -12.082031 -5.992188 -12.070312 -6.109375 -12.03125 C -6.234375 -11.988281 -6.351562 -11.929688 -6.46875 -11.859375 L -7.203125 -11.375 L -7.796875 -12.265625 L -1.953125 -16.15625 L -1.359375 -15.265625 L -2.078125 -14.78125 C -2.191406 -14.707031 -2.289062 -14.625 -2.375 -14.53125 C -2.46875 -14.4375 -2.523438 -14.320312 -2.546875 -14.1875 C -2.578125 -14.050781 -2.566406 -13.898438 -2.515625 -13.734375 C -2.460938 -13.566406 -2.359375 -13.359375 -2.203125 -13.109375 L 2.15625 -6.578125 C 2.46875 -6.109375 2.789062 -5.75 3.125 -5.5 C 3.46875 -5.257812 3.8125 -5.113281 4.15625 -5.0625 C 4.507812 -5.007812 4.867188 -5.039062 5.234375 -5.15625 C 5.597656 -5.28125 5.976562 -5.472656 6.375 -5.734375 C 6.738281 -5.984375 7.039062 -6.257812 7.28125 -6.5625 C 7.519531 -6.863281 7.675781 -7.1875 7.75 -7.53125 C 7.820312 -7.875 7.8125 -8.238281 7.71875 -8.625 C 7.632812 -9.019531 7.453125 -9.429688 7.171875 -9.859375 L 2.734375 -16.5 C 2.585938 -16.71875 2.445312 -16.882812 2.3125 -17 C 2.175781 -17.113281 2.039062 -17.175781 1.90625 -17.1875 C 1.78125 -17.195312 1.65625 -17.179688 1.53125 -17.140625 C 1.414062 -17.097656 1.300781 -17.039062 1.1875 -16.96875 L 0.46875 -16.484375 L -0.125 -17.375 L 4.3125 -20.328125 Z M 4.90625 -19.4375 "/></g></g></g><g fill="#000000" fill-opacity="1"><g transform="translate(286.212072, 313.505188)"><g><path d="M -0.25 -1.1875 L 0.40625 -1.734375 C 0.507812 -1.828125 0.597656 -1.921875 0.671875 -2.015625 C 0.753906 -2.117188 0.804688 -2.234375 0.828125 -2.359375 C 0.847656 -2.484375 0.828125 -2.625 0.765625 -2.78125 C 0.703125 -2.945312 0.585938 -3.132812 0.421875 -3.34375 L -5.9375 -10.9375 C -6.113281 -11.144531 -6.273438 -11.289062 -6.421875 -11.375 C -6.566406 -11.46875 -6.707031 -11.515625 -6.84375 -11.515625 C -6.976562 -11.523438 -7.101562 -11.5 -7.21875 -11.4375 C -7.332031 -11.382812 -7.441406 -11.3125 -7.546875 -11.21875 L -8.203125 -10.671875 L -8.875 -11.484375 L -3.84375 -15.703125 C -2.375 -16.929688 -1.09375 -17.585938 0 -17.671875 C 1.101562 -17.753906 2.046875 -17.328125 2.828125 -16.390625 C 3.171875 -15.984375 3.414062 -15.566406 3.5625 -15.140625 C 3.71875 -14.722656 3.789062 -14.3125 3.78125 -13.90625 C 3.78125 -13.5 3.71875 -13.109375 3.59375 -12.734375 C 3.476562 -12.359375 3.335938 -12.003906 3.171875 -11.671875 L 7.71875 -10.015625 C 8.039062 -9.910156 8.328125 -9.828125 8.578125 -9.765625 C 8.835938 -9.710938 9.070312 -9.6875 9.28125 -9.6875 C 9.488281 -9.6875 9.679688 -9.71875 9.859375 -9.78125 C 10.035156 -9.84375 10.195312 -9.9375 10.34375 -10.0625 L 10.40625 -10.109375 L 11.09375 -9.28125 L 10.578125 -8.859375 C 10.117188 -8.460938 9.695312 -8.132812 9.3125 -7.875 C 8.925781 -7.625 8.5625 -7.441406 8.21875 -7.328125 C 7.875 -7.210938 7.53125 -7.164062 7.1875 -7.1875 C 6.84375 -7.207031 6.46875 -7.300781 6.0625 -7.46875 L 1.328125 -9.34375 L 0.296875 -8.484375 L 2.875 -5.40625 C 3.039062 -5.195312 3.195312 -5.046875 3.34375 -4.953125 C 3.5 -4.867188 3.640625 -4.828125 3.765625 -4.828125 C 3.898438 -4.828125 4.019531 -4.851562 4.125 -4.90625 C 4.238281 -4.96875 4.351562 -5.046875 4.46875 -5.140625 L 5.140625 -5.703125 L 5.828125 -4.875 L 0.4375 -0.359375 Z M -0.453125 -9.375 L 0.421875 -10.109375 C 0.785156 -10.410156 1.046875 -10.710938 1.203125 -11.015625 C 1.367188 -11.328125 1.441406 -11.632812 1.421875 -11.9375 C 1.398438 -12.25 1.300781 -12.570312 1.125 -12.90625 C 0.957031 -13.25 0.710938 -13.613281 0.390625 -14 C 0.0664062 -14.382812 -0.242188 -14.6875 -0.546875 -14.90625 C -0.847656 -15.125 -1.148438 -15.253906 -1.453125 -15.296875 C -1.753906 -15.347656 -2.054688 -15.3125 -2.359375 -15.1875 C -2.671875 -15.0625 -3 -14.859375 -3.34375 -14.578125 L -4.203125 -13.859375 Z M -0.453125 -9.375 "/></g></g></g></svg>